<?xml version="1.0" standalone="no"?>
<!DOCTYPE svg PUBLIC "-//W3C//DTD SVG 20010904//EN"
 "http://www.w3.org/TR/2001/REC-SVG-20010904/DTD/svg10.dtd">
<svg version="1.0" xmlns="http://www.w3.org/2000/svg"
 width="600.000000pt" height="600.000000pt" viewBox="0 0 600.000000 600.000000"
 preserveAspectRatio="xMidYMid meet">
<metadata>
Created by potrace 1.14, written by Peter Selinger 2001-2017
</metadata>
<g transform="translate(0.000000,600.000000) scale(0.100000,-0.100000)"
fill="#000000" stroke="none">
<path d="M2795 5310 c-108 -12 -188 -23 -250 -37 -16 -4 -35 -8 -41 -9 -230
-43 -557 -184 -785 -337 -129 -86 -134 -90 -258 -198 -282 -247 -511 -583
-638 -939 -40 -111 -62 -178 -67 -203 -5 -21 -17 -71 -26 -107 -29 -113 -48
-313 -47 -505 l0 -190 -69 -21 c-92 -29 -200 -46 -304 -48 -62 0 -190 13 -230
24 -19 5 -35 8 -37 6 -6 -6 126 -81 212 -121 135 -63 266 -102 436 -130 39 -6
50 -23 64 -91 3 -17 19 -71 34 -120 176 -547 545 -1010 1039 -1301 191 -112
453 -218 642 -259 19 -4 40 -9 45 -10 61 -15 163 -32 270 -44 73 -8 437 -5
490 4 17 3 65 10 107 16 135 20 364 83 503 139 64 27 301 148 360 185 200 125
439 338 581 516 185 232 348 544 419 801 18 66 29 77 111 118 76 38 184 67
287 79 82 9 320 7 346 -3 41 -16 -31 41 -108 85 -111 63 -251 118 -343 135
-61 11 -73 13 -138 20 l-65 7 0 202 c0 245 -8 327 -52 526 -195 891 -911 1590
-1818 1776 -165 34 -506 51 -670 34z m350 -384 c55 -3 116 -8 135 -11 39 -6
99 -17 115 -21 6 -1 21 -4 35 -7 275 -55 587 -208 818 -401 455 -381 703 -908
704 -1496 1 -218 -12 -270 -63 -270 -55 0 -330 -116 -489 -206 -320 -182 -648
-211 -859 -77 -31 20 -75 56 -99 82 -44 47 -106 162 -117 216 -18 93 -23 139
-20 220 13 407 197 670 516 740 193 42 464 9 677 -83 l90 -39 -55 91 c-153
253 -320 443 -533 609 -34 27 -149 97 -205 126 -499 254 -1107 146 -1650 -294
-168 -137 -295 -272 -456 -485 -195 -260 -350 -425 -533 -569 -70 -55 -81 -61
-87 -45 -3 11 -5 33 -3 49 1 17 5 62 9 100 12 157 30 253 75 400 174 578 626
1054 1195 1260 98 36 261 79 340 90 23 3 52 8 65 11 14 3 79 8 145 11 66 3
122 7 123 8 2 2 9 2 15 0 7 -2 57 -6 112 -9z m162 -930 c3 -3 -3 -8 -13 -12
-151 -49 -340 -210 -467 -398 -50 -73 -127 -224 -127 -248 0 -8 -4 -18 -9 -23
-5 -6 -19 -53 -31 -105 -29 -119 -35 -327 -14 -445 32 -185 136 -437 232 -568
179 -242 468 -397 832 -447 92 -13 312 -16 400 -6 160 19 362 72 454 118 l40
20 -19 -28 c-82 -127 -265 -312 -425 -430 -217 -160 -549 -307 -765 -339 -22
-3 -47 -7 -55 -10 -18 -5 -101 -16 -155 -21 -53 -4 -312 -4 -350 1 -16 2 -54
7 -84 10 -601 74 -1155 457 -1454 1005 -64 116 -147 327 -162 411 l-7 36 66
17 c128 35 359 166 461 262 11 11 36 32 55 48 123 101 303 272 625 591 403
401 542 507 727 555 70 18 229 22 245 6z"/>
</g>
</svg>
